ffmpeg version 3.4.8-0ubuntu0.2 Copyright (c) 2000-2020 the FFmpeg developers
  built with gcc 7 (Ubuntu 7.5.0-3ubuntu1~18.04)
  configuration: --prefix=/usr --extra-version=0ubuntu0.2 --toolchain=hardened --libdir=/usr/lib/x86_64-linux-gnu --incdir=/usr/include/x86_64-linux-gnu --enable-gpl --disable-stripping --enable-avresample --enable-avisynth --enable-gnutls --enable-ladspa --enable-libass --enable-libbluray --enable-libbs2b --enable-libcaca --enable-libcdio --enable-libflite --enable-libfontconfig --enable-libfreetype --enable-libfribidi --enable-libgme --enable-libgsm --enable-libmp3lame --enable-libmysofa --enable-libopenjpeg --enable-libopenmpt --enable-libopus --enable-libpulse --enable-librubberband --enable-librsvg --enable-libshine --enable-libsnappy --enable-libsoxr --enable-libspeex --enable-libssh --enable-libtheora --enable-libtwolame --enable-libvorbis --enable-libvpx --enable-libwavpack --enable-libwebp --enable-libx265 --enable-libxml2 --enable-libxvid --enable-libzmq --enable-libzvbi --enable-omx --enable-openal --enable-opengl --enable-sdl2 --enable-libdc1394 --enable-libdrm --enable-libiec61883 --enable-chromaprint --enable-frei0r --enable-libopencv --enable-libx264 --enable-shared
  libavutil      55. 78.100 / 55. 78.100
  libavcodec     57.107.100 / 57.107.100
  libavformat    57. 83.100 / 57. 83.100
  libavdevice    57. 10.100 / 57. 10.100
  libavfilter     6.107.100 /  6.107.100
  libavresample   3.  7.  0 /  3.  7.  0
  libswscale      4.  8.100 /  4.  8.100
  libswresample   2.  9.100 /  2.  9.100
  libpostproc    54.  7.100 / 54.  7.100
[rawvideo @ 0x55cf3cf53a20] Estimating duration from bitrate, this may be inaccurate
Input #0, rawvideo, from '../../SVC-Encoder-20220109T061506Z-001/SVC-Encoder/Dataset/RollerCoaster/ERP_8x8/tile_yuv/Tile_32_480x240.yuv':
  Duration: 00:00:10.00, start: 0.000000, bitrate: 41472 kb/s
    Stream #0:0: Video: rawvideo (I420 / 0x30323449), yuv420p, 480x240, 41472 kb/s, 30 tbr, 30 tbn, 30 tbc
Stream mapping:
  Stream #0:0 -> #0:0 (rawvideo (native) -> h264 (libx264))
Press [q] to stop, [?] for help
[libx264 @ 0x55cf3cf60c60] using cpu capabilities: MMX2 SSE2Fast LZCNT SSSE3 SSE4.2 AVX
[libx264 @ 0x55cf3cf60c60] profile High, level 2.1
Output #0, rawvideo, to 'RollerCoaster_Tile_32_480x240_x264_QP_36.h264':
  Metadata:
    encoder         : Lavf57.83.100
    Stream #0:0: Video: h264 (libx264), yuv420p, 480x240, q=-1--1, 30 fps, 30 tbn, 30 tbc
    Metadata:
      encoder         : Lavc57.107.100 libx264
    Side data:
      cpb: bitrate max/min/avg: 0/0/0 buffer size: 0 vbv_delay: -1
frame=  173 fps=0.0 q=42.0 PSNR=Y:nan U:nan V:nan *:nan size=      50kB time=00:00:04.33 bitrate=  93.8kbits/s speed=8.66x    frame=  300 fps=0.0 q=42.0 LPSNR=Y:inf U:inf V:inf *:inf size=     111kB time=00:00:09.93 bitrate=  91.9kbits/s speed=10.4x    
video:111kB audio:0kB subtitle:0kB other streams:0kB global headers:0kB muxing overhead: 0.000000%
[libx264 @ 0x55cf3cf60c60] frame I:2     Avg QP:33.80  size:  6938  PSNR Mean Y:34.19 U:42.02 V:43.43 Avg:35.65 Global:35.61
[libx264 @ 0x55cf3cf60c60] frame P:76    Avg QP:35.86  size:   871  PSNR Mean Y:32.49 U:42.36 V:43.39 Avg:34.06 Global:34.03
[libx264 @ 0x55cf3cf60c60] frame B:222   Avg QP:41.47  size:   153  PSNR Mean Y:32.20 U:42.26 V:43.33 Avg:33.77 Global:33.75
[libx264 @ 0x55cf3cf60c60] consecutive B-frames:  1.0%  0.7%  1.0% 97.3%
[libx264 @ 0x55cf3cf60c60] mb I  I16..4: 11.9% 69.8% 18.3%
[libx264 @ 0x55cf3cf60c60] mb P  I16..4:  0.7%  0.8%  0.2%  P16..4: 44.7%  9.0%  1.9%  0.0%  0.0%    skip:42.7%
[libx264 @ 0x55cf3cf60c60] mb B  I16..4:  0.0%  0.0%  0.0%  B16..8: 23.4%  0.5%  0.0%  direct: 0.1%  skip:76.0%  L0:30.7% L1:68.8% BI: 0.4%
[libx264 @ 0x55cf3cf60c60] 8x8 transform intra:60.7% inter:78.1%
[libx264 @ 0x55cf3cf60c60] coded y,uvDC,uvAC intra: 59.4% 56.3% 10.3% inter: 3.1% 1.6% 0.0%
[libx264 @ 0x55cf3cf60c60] i16 v,h,dc,p: 11% 35% 19% 35%
[libx264 @ 0x55cf3cf60c60] i8 v,h,dc,ddl,ddr,vr,hd,vl,hu: 10% 12% 21%  6% 12%  9%  8% 12% 10%
[libx264 @ 0x55cf3cf60c60] i4 v,h,dc,ddl,ddr,vr,hd,vl,hu: 14% 12% 21%  6% 15%  9%  8%  8%  7%
[libx264 @ 0x55cf3cf60c60] i8c dc,h,v,p: 56% 20% 15% 10%
[libx264 @ 0x55cf3cf60c60] Weighted P-Frames: Y:0.0% UV:0.0%
[libx264 @ 0x55cf3cf60c60] ref P L0: 60.4% 16.3% 18.2%  5.2%
[libx264 @ 0x55cf3cf60c60] ref B L0: 84.9% 12.1%  3.0%
[libx264 @ 0x55cf3cf60c60] ref B L1: 86.7% 13.3%
[libx264 @ 0x55cf3cf60c60] PSNR Mean Y:32.285 U:42.282 V:43.349 Avg:33.855 Global:33.829 kb/s:91.28
